<svg width="105" height="59" viewBox="0 0 105 59" fill="none" xmlns="http://www.w3.org/2000/svg">
<g clip-path="url(#clip0)">
<path d="M48.9876 1.49909C45.7684 4.65789 42.12 11.3503 40.4567 14.9909L36.6473 14.9374C38.7934 8.72686 37.935 4.06896 32.9452 4.06896C29.2968 4.06896 27.4725 7.12069 27.4725 10.5472C27.4725 17.5608 35.145 23.8784 35.145 36.6742C35.145 50.6479 27.6872 59.1071 15.5614 59.1071C6.27938 59 -0.427317 52.843 0.00191146 43.3666C0.377486 35.2287 6.17207 30.2495 12.8251 30.2495C14.0055 30.2495 16.8491 30.4102 18.1368 32.873L17.6003 33.3548C13.0397 33.1406 10.3034 37.049 10.1424 41.0109C9.98147 44.8122 12.2886 48.667 16.6882 48.667C21.1414 48.667 26.3458 44.5445 26.3458 37.4773C26.3458 27.6797 19.8537 22.0045 19.8537 13.3312C19.8537 6.53176 23.8777 0 32.9989 0C39.33 0 41.2079 3.21234 47.4853 0.321234L48.9876 1.49909Z" fill="#FAFAFA"/>
<path d="M54.4071 30.6778C51.6171 36.0853 48.7198 38.8693 44.9641 38.8693C39.7597 38.8693 38.2574 35.7641 38.3647 32.0699C38.5793 26.5553 42.8179 19.7559 48.1296 19.7559C48.8271 19.7559 52.5829 19.863 52.3682 23.8249C52.1536 27.4655 48.3979 31.1597 45.3396 31.1062C44.2666 31.1062 43.5154 30.6779 42.9789 29.9818V30.0889C42.8716 32.1769 44.8031 33.7831 47.3785 33.7831C49.6319 33.7831 52.5829 32.7123 54.2461 28.5898C54.6217 28.5363 55.5875 28.4292 54.4071 30.6778ZM43.4081 27.9474C43.8373 28.5363 44.0519 28.7504 44.6958 28.7504C47.1102 28.7504 49.31 24.9492 49.471 22.9147C49.471 22.2722 49.31 21.8439 48.6661 21.8439C46.7346 21.8974 44.3739 24.9492 43.4081 27.9474Z" fill="#FAFAFA"/>
<path d="M93.2518 11.2967C91.6422 14.9374 89.3887 16.0081 86.4915 16.0081C82.0382 16.0081 79.4092 14.7232 77.0484 14.509C74.0975 16.7041 68.1956 18.0426 68.1956 14.8303C69.1077 13.3847 72.2733 12.2069 75.7071 12.1533C76.8875 9.637 75.5998 7.76313 73.0244 7.76313C67.7664 7.76313 64.2252 14.2414 61.167 22.4864C60.5768 24.2531 60.0939 25.6452 59.9329 25.9664C58.5916 29.5535 57.4649 33.8366 59.9329 33.8366C62.24 33.8366 64.2789 28.6433 64.2789 28.6433C64.6008 28.6433 65.352 28.804 64.3862 30.7849C62.6156 34.4791 60.3085 38.9764 56.3918 38.9764H56.3382H56.2845H56.2308C56.1772 38.9764 56.1235 38.9764 56.0699 38.9764C53.7628 38.7622 51.8313 35.8176 53.3336 31.4809C53.7091 30.4637 54.7822 27.0907 56.0699 23.2894C56.1772 22.9147 56.3382 22.5399 56.4991 22.1116C60.0939 12.6887 64.9227 5.72865 73.6146 5.67511H73.6683C76.9948 5.67511 79.5165 7.01359 79.5165 9.69054C79.5165 10.6542 79.3019 11.4573 79.0336 12.1533C85.7403 12.421 90.8374 13.5453 92.8762 11.029L93.2518 11.2967Z" fill="#FAFAFA"/>
<path d="M81.4476 20.7196C81.072 27.6261 73.2922 38.8158 68.0878 38.8158C64.5467 38.8158 63.2053 29.2858 65.1905 21.5227L64.7613 20.9337L65.4051 20.1842C66.9611 20.9873 70.7168 20.1306 72.1655 19.7559L72.3801 20.6125C72.3801 20.6125 71.3607 20.666 70.7168 23.0218C69.8584 26.3947 70.3413 33.7831 71.5216 33.7831C74.6872 33.7831 77.5308 27.7332 77.6918 24.1461C77.8528 21.2014 76.3505 19.8629 74.7945 19.8629L74.5799 19.5417L78.3893 15.4727C81.0183 15.9011 81.5549 18.4174 81.4476 20.7196Z" fill="#FAFAFA"/>
<path d="M102.212 30.6778C100.548 34.372 98.0267 38.8693 94.0563 38.8693C91.9638 38.8693 90.1933 36.6742 90.6225 33.3547C89.1738 36.2994 87.296 38.8693 84.7743 38.8693C76.9945 38.8693 81.8233 19.7023 90.6761 19.7023C93.0369 19.7023 93.8417 21.0943 94.11 22.2722L94.8611 20.1306C96.4171 20.9872 99.4217 20.1306 100.763 19.7023L100.978 20.5589C100.978 20.5589 99.6899 20.7195 98.7242 22.9682C97.3828 26.3947 94.3782 33.7295 97.5975 33.7295C99.9046 33.7295 102.051 28.5362 102.051 28.5362C102.534 28.5362 103.177 28.5362 102.212 30.6778ZM92.715 26.6088L93.5734 23.9854C93.5198 22.754 92.715 21.8974 91.5883 21.8974C87.5106 21.8974 83.8085 33.676 87.5106 33.676C89.6567 33.676 91.6956 29.1787 92.715 26.6088Z" fill="#FAFAFA"/>
<path d="M105.002 35.7105C105.002 42.1888 98.6709 46.9537 82.1993 46.9537C66.6397 46.9537 58.0015 42.6706 45.4466 51.6116L34.7695 46.579C48.2902 36.5672 67.069 44.4909 83.7016 44.4909C99.8513 44.4909 105.002 37.3703 102.105 32.2305C101.568 30.9991 100.924 30.4102 100.978 29.7677C100.978 29.0182 101.407 28.3757 102.266 28.3757C103.392 28.3757 103.392 29.8213 102.641 30.9991C103.553 31.9093 105.002 33.3548 105.002 35.7105Z" fill="#FAFAFA"/>
</g>
<defs>
<clipPath id="clip0">
<rect width="105" height="59" fill="white"/>
</clipPath>
</defs>
</svg>
