<svg width="105" height="59" viewBox="0 0 105 59" fill="none" xmlns="http://www.w3.org/2000/svg">
<g clip-path="url(#clip0)">
<path d="M48.9857 1.49909C45.7665 4.65789 42.118 11.3503 40.4547 14.9909L36.6453 14.9374C38.7915 8.72686 37.933 4.06897 32.9432 4.06897C29.2948 4.06897 27.4706 7.12069 27.4706 10.5472C27.4706 17.5608 35.143 23.8784 35.143 36.6742C35.143 50.6479 27.6852 59.1071 15.5595 59.1071C6.27743 59 -0.42927 52.843 -4.16692e-05 43.3666C0.375533 35.2287 6.17012 30.2495 12.8232 30.2495C14.0035 30.2495 16.8472 30.4102 18.1349 32.873L17.5983 33.3548C13.0378 33.1406 10.3014 37.049 10.1405 41.0109C9.97952 44.8122 12.2866 48.667 16.6862 48.667C21.1395 48.667 26.3439 44.5445 26.3439 37.4773C26.3439 27.6797 19.8518 22.0045 19.8518 13.3312C19.8518 6.53176 23.8758 0 32.9969 0C39.328 0 41.2059 3.21234 47.4834 0.321234L48.9857 1.49909Z" fill="#2C2B29"/>
<path d="M54.4032 30.6779C51.6132 36.0854 48.7159 38.8694 44.9601 38.8694C39.7558 38.8694 38.2535 35.7642 38.3608 32.07C38.5754 26.5554 42.814 19.756 48.1257 19.756C48.8232 19.756 52.579 19.8631 52.3643 23.8249C52.1497 27.4656 48.394 31.1598 45.3357 31.1063C44.2627 31.1063 43.5115 30.6779 42.975 29.9819V30.089C42.8677 32.177 44.7992 33.7832 47.3746 33.7832C49.628 33.7832 52.579 32.7124 54.2422 28.5899C54.6178 28.5364 55.5836 28.4293 54.4032 30.6779ZM43.4042 27.9475C43.8334 28.5364 44.048 28.7505 44.6919 28.7505C47.1063 28.7505 49.3061 24.9493 49.467 22.9148C49.467 22.2723 49.3061 21.844 48.6622 21.844C46.7307 21.8975 44.37 24.9493 43.4042 27.9475Z" fill="#2C2B29"/>
<path d="M93.2499 11.2968C91.6402 14.9374 89.3868 16.0082 86.4895 16.0082C82.0363 16.0082 79.4072 14.7233 77.0465 14.5091C74.0955 16.7042 68.1936 18.0427 68.1936 14.8303C69.1057 13.3848 72.2713 12.2069 75.7051 12.1534C76.8855 9.63706 75.5978 7.76319 73.0225 7.76319C67.7644 7.76319 64.2233 14.2414 61.165 22.4864C60.5748 24.2532 60.0919 25.6452 59.931 25.9665C58.5897 29.5536 57.4629 33.8367 59.931 33.8367C62.2381 33.8367 64.2769 28.6434 64.2769 28.6434C64.5989 28.6434 65.35 28.804 64.3842 30.785C62.6137 34.4792 60.3066 38.9764 56.3899 38.9764H56.3362H56.2825H56.2289C56.1752 38.9764 56.1216 38.9764 56.0679 38.9764C53.7608 38.7623 51.8293 35.8176 53.3316 31.481C53.7072 30.4637 54.7802 27.0908 56.0679 23.2895C56.1752 22.9147 56.3362 22.54 56.4972 22.1116C60.092 12.6888 64.9208 5.72871 73.6126 5.67517H73.6663C76.9928 5.67517 79.5145 7.01365 79.5145 9.6906C79.5145 10.6543 79.2999 11.4574 79.0317 12.1534C85.7384 12.4211 90.8354 13.5454 92.8743 11.0291L93.2499 11.2968Z" fill="#2C2B29"/>
<path d="M81.4436 20.7196C81.0681 27.6261 73.2883 38.8158 68.0839 38.8158C64.5428 38.8158 63.2014 29.2858 65.1866 21.5227L64.7574 20.9338L65.4012 20.1842C66.9572 20.9873 70.7129 20.1307 72.1616 19.7559L72.3762 20.6125C72.3762 20.6125 71.3568 20.6661 70.7129 23.0218C69.8545 26.3947 70.3374 33.7831 71.5177 33.7831C74.6833 33.7831 77.5269 27.7332 77.6879 24.1461C77.8489 21.2015 76.3466 19.863 74.7906 19.863L74.576 19.5417L78.3854 15.4728C81.0144 15.9011 81.551 18.4174 81.4436 20.7196Z" fill="#2C2B29"/>
<path d="M102.208 30.6779C100.544 34.3721 98.0228 38.8694 94.0524 38.8694C91.9599 38.8694 90.1894 36.6743 90.6186 33.3548C89.1699 36.2995 87.2921 38.8694 84.7704 38.8694C76.9906 38.8694 81.8194 19.7024 90.6722 19.7024C93.033 19.7024 93.8378 21.0944 94.1061 22.2723L94.8572 20.1307C96.4132 20.9873 99.4178 20.1307 100.759 19.7024L100.974 20.559C100.974 20.559 99.686 20.7196 98.7203 22.9683C97.3789 26.3948 94.3743 33.7296 97.5935 33.7296C99.9007 33.7296 102.047 28.5363 102.047 28.5363C102.53 28.5363 103.174 28.5363 102.208 30.6779ZM92.7111 26.6089L93.5695 23.9855C93.5159 22.7541 92.7111 21.8975 91.5844 21.8975C87.5067 21.8975 83.8046 33.6761 87.5067 33.6761C89.6528 33.6761 91.6917 29.1788 92.7111 26.6089Z" fill="#2C2B29"/>
<path d="M104.998 35.7106C104.998 42.1888 98.667 46.9538 82.1954 46.9538C66.6358 46.9538 57.9976 42.6707 45.4427 51.6117L34.7656 46.579C48.2863 36.5672 67.0651 44.491 83.6977 44.491C99.8474 44.491 104.998 37.3703 102.101 32.2305C101.564 30.9991 100.92 30.4102 100.974 29.7677C100.974 29.0182 101.403 28.3757 102.262 28.3757C103.389 28.3757 103.389 29.8213 102.637 30.9991C103.549 31.9093 104.998 33.3549 104.998 35.7106Z" fill="#2C2B29"/>
</g>
<defs>
<clipPath id="clip0">
<rect width="105" height="59" fill="white"/>
</clipPath>
</defs>
</svg>
